<?xml version="1.0" encoding="utf-8"?>
<!-- Svg Vector Icons : http://www.onlinewebfonts.com/icon -->
<!DOCTYPE svg PUBLIC "-//W3C//DTD SVG 1.1//EN" "http://www.w3.org/Graphics/SVG/1.1/DTD/svg11.dtd">
<svg version="1.1" xmlns="http://www.w3.org/2000/svg" xmlns:xlink="http://www.w3.org/1999/xlink" x="0px" y="0px" viewBox="0 0 256 256" enable-background="new 0 0 256 256" xml:space="preserve">
<metadata> Svg Vector Icons : http://www.onlinewebfonts.com/icon </metadata>
<g><g><g><path fill="#000000" d="M218.2,131.7l-86.5,112.5c-0.9,1.1-2.2,1.8-3.6,1.8c-1.4,0-2.8-0.7-3.6-1.8L37.8,131.7c-0.6-0.8-1-1.8-1-2.8c0-1,0.3-2,0.9-2.8c1.2-1.6,3.4-2.3,5.3-1.5l57.3,22.6V14.6c0-2.5,2-4.6,4.6-4.6h45.9c2.5,0,4.6,2,4.6,4.6v132.6l57.3-22.6c1.9-0.7,4.1-0.1,5.3,1.5C219.4,127.7,219.4,130,218.2,131.7z"/></g><g></g><g></g><g></g><g></g><g></g><g></g><g></g><g></g><g></g><g></g><g></g><g></g><g></g><g></g><g></g></g></g>
</svg>